<?xml version="1.0" encoding="utf-8"?><svg version="1.1" id="Layer_1" xmlns="http://www.w3.org/2000/svg" xmlns:xlink="http://www.w3.org/1999/xlink" x="0px" y="0px" viewBox="0 0 122.88 105.55" style="enable-background:new 0 0 122.88 105.55" xml:space="preserve"><g fill="#fff"><path d="M25.47,58.17c-0.35,0.11-0.73,0.08-1.08-0.1c-1.43-0.75-2.58-1.26-3.78-1.33c-1.18-0.07-2.44,0.29-4.11,1.29 c-0.34,0.2-0.72,0.25-1.08,0.16c-0.35-0.09-0.68-0.31-0.88-0.65c-0.2-0.34-0.25-0.72-0.16-1.08c0.09-0.35,0.31-0.68,0.65-0.88 c0.91-0.54,1.81-0.93,2.71-1.18c0.9-0.25,1.81-0.35,2.72-0.33c0.89,0.02,1.77,0.16,2.65,0.41c0.87,0.25,1.73,0.61,2.59,1.05 c0.35,0.18,0.59,0.49,0.7,0.83c0.11,0.35,0.08,0.73-0.1,1.08C26.13,57.82,25.82,58.06,25.47,58.17L25.47,58.17z M102.96,23.23 c1.71-0.01,3.1,1.37,3.1,3.08c0.01,1.71-1.37,3.1-3.08,3.1c-1.71,0.01-3.1-1.37-3.1-3.08C99.88,24.63,101.26,23.24,102.96,23.23 L102.96,23.23z M90.66,23.28c1.71-0.01,3.1,1.37,3.1,3.08c0.01,1.71-1.37,3.1-3.08,3.1c-1.71,0.01-3.1-1.37-3.1-3.08 C87.57,24.68,88.95,23.29,90.66,23.28L90.66,23.28z M78.35,23.34c1.71-0.01,3.1,1.37,3.1,3.08c0.01,1.71-1.37,3.09-3.08,3.1 c-1.71,0.01-3.1-1.37-3.1-3.08C75.27,24.73,76.65,23.34,78.35,23.34L78.35,23.34z M82.41,38.61c0.57,1.27,1.35,2.29,2.29,3.07 c1.38,1.16,3.1,1.81,4.92,1.97c1.86,0.17,3.83-0.17,5.67-0.98c1.65-0.73,3.19-1.85,4.43-3.34c0.33-0.39,0.82-0.58,1.29-0.54 c2.52,0.16,4.77-0.04,6.77-0.55c3.86-0.97,6.75-3.07,8.73-5.76c2-2.71,3.09-6.03,3.31-9.38c0.13-2.04-0.05-4.1-0.54-6.04 c-0.66-2.61-1.85-5.06-3.45-7.16c-1.97-2.58-4.55-4.62-7.53-5.79c-2.96-1.16-6.33-1.47-9.88-0.57c-2.62,0.66-5.35,1.98-8.11,4.08 c-0.47,0.36-1.07,0.4-1.57,0.16c-5.3-2.3-9.92-2.85-13.79-1.52c-3.86,1.32-7.09,4.54-9.64,9.79c-0.15,0.31-0.39,0.54-0.67,0.69 c-3.04,1.71-4.58,4.83-4.72,8.17c-0.08,1.92,0.3,3.91,1.11,5.77c0.81,1.85,2.07,3.57,3.74,4.93c3.46,2.81,8.77,4.13,15.81,2.11 C81.34,37.52,82.12,37.91,82.41,38.61L82.41,38.61z M89.52,67.79c0.63-1.05,1.63-1.76,2.73-2.06c1.14-0.31,2.39-0.19,3.49,0.44 c1.1,0.63,1.85,1.65,2.16,2.79c0.31,1.14,0.19,2.39-0.44,3.49c-0.63,1.1-1.65,1.85-2.79,2.16c-1.1,0.3-2.31,0.2-3.39-0.38 c-0.07-0.03-0.14-0.07-0.21-0.12c-1.05-0.63-1.76-1.63-2.06-2.73c-0.3-1.1-0.2-2.31,0.38-3.39C89.43,67.93,89.47,67.86,89.52,67.79 L89.52,67.79z M92.92,68.19c-0.5,0.14-0.95,0.47-1.23,0.96l0,0.01c-0.28,0.49-0.34,1.06-0.2,1.56c0.14,0.5,0.47,0.95,0.95,1.23 l0.01,0c0.49,0.28,1.06,0.34,1.56,0.2c0.5-0.14,0.96-0.47,1.24-0.96c0.28-0.49,0.34-1.06,0.2-1.56c-0.14-0.5-0.47-0.96-0.96-1.24 C93.98,68.11,93.42,68.06,92.92,68.19L92.92,68.19z M92.64,51.19c0.04-0.08,0.08-0.16,0.13-0.23c1.01-1.7,2.61-2.86,4.39-3.34 c1.78-0.49,3.74-0.31,5.48,0.64c0.08,0.04,0.16,0.08,0.23,0.13c1.71,1.01,2.86,2.61,3.34,4.39c0.5,1.82,0.3,3.83-0.7,5.59 c-1.01,1.77-2.64,2.96-4.46,3.46c-1.82,0.5-3.83,0.3-5.59-0.7c-1.77-1.01-2.96-2.64-3.46-4.46C91.51,54.89,91.69,52.93,92.64,51.19 L92.64,51.19z M97.94,50.49c-1.08,0.3-2.05,1-2.65,2.05l0,0.01c-0.6,1.06-0.72,2.26-0.42,3.34c0.3,1.08,1.01,2.05,2.06,2.65 c1.06,0.6,2.26,0.72,3.34,0.42c1.08-0.3,2.05-1.01,2.65-2.06c0.6-1.06,0.72-2.26,0.42-3.34c-0.3-1.08-1-2.05-2.05-2.65l-0.01,0 C100.23,50.31,99.03,50.19,97.94,50.49L97.94,50.49z M82.76,44c-0.99-0.82-1.85-1.84-2.54-3.04c-7.54,1.84-13.38,0.22-17.34-3 c-2.06-1.67-3.6-3.78-4.61-6.06c-1-2.28-1.46-4.73-1.36-7.1c0.18-4.21,2.1-8.16,5.89-10.47c2.9-5.77,6.64-9.37,11.18-10.93 c4.42-1.51,9.5-1.04,15.2,1.3c2.86-2.06,5.72-3.39,8.5-4.09c4.2-1.06,8.19-0.7,11.71,0.69c3.51,1.38,6.53,3.77,8.83,6.77 c1.85,2.42,3.22,5.25,3.98,8.26c0.57,2.24,0.78,4.61,0.62,6.97c-0.26,3.92-1.53,7.79-3.89,10.98c-2.38,3.22-5.83,5.74-10.43,6.9 c-2.09,0.53-4.42,0.77-6.98,0.67c-1.46,1.57-3.18,2.77-5.02,3.59c-2.3,1.02-4.79,1.43-7.16,1.22C86.92,46.44,84.62,45.56,82.76,44 L82.76,44z M30.29,97.89c0.01,0.4,0.01,0.8-0.01,1.2c-0.02,0.48-0.05,0.95-0.09,1.43c-0.06,0.65-0.15,1.29-0.27,1.93 c-0.12,0.64-0.26,1.27-0.42,1.89c-0.12,0.43-0.4,0.78-0.76,0.99c-0.36,0.21-0.8,0.28-1.23,0.16c-0.43-0.12-0.78-0.4-0.99-0.76 c-0.21-0.36-0.28-0.8-0.16-1.23l0-0.01c0.15-0.55,0.27-1.09,0.37-1.64c0.1-0.55,0.18-1.1,0.23-1.64c0.03-0.29,0.05-0.58,0.06-0.87 l0.02-0.47c-0.7,0.19-1.4,0.36-2.08,0.51c-0.85,0.19-1.69,0.36-2.51,0.51c-1.69,0.3-3.33,0.49-4.86,0.53 c-1.48,0.04-2.85-0.04-4.08-0.27c-0.98-0.18-1.88-0.46-2.67-0.84c-0.77-0.37-1.45-0.83-2.01-1.4c-0.62-0.63-1.09-1.36-1.38-2.21 c-0.28-0.81-0.39-1.72-0.33-2.73c0.05-0.72,0.19-1.49,0.43-2.32c0.23-0.77,0.54-1.6,0.95-2.46c-0.09-0.44-0.17-0.89-0.25-1.34 c-0.08-0.48-0.16-0.98-0.22-1.5c-0.08-0.58-0.14-1.16-0.19-1.73c-0.05-0.57-0.08-1.15-0.11-1.75c0-0.06-0.02-0.13-0.03-0.2 c-0.1-1.06-0.16-2.11-0.19-3.15c-0.04-1.04-0.05-2.09-0.06-3.14l0-0.29c-1.02-0.06-2.1-0.09-3.1-0.18 c-0.43-0.02-0.85-0.09-1.23-0.21c-0.4-0.12-0.78-0.3-1.11-0.52c-0.32-0.21-0.61-0.46-0.87-0.75c-0.25-0.29-0.47-0.61-0.64-0.96 c-0.17-0.34-0.3-0.71-0.38-1.1C0.03,71-0.01,70.59,0,70.18c0.01-0.6,0.12-1.24,0.34-1.9c0.21-0.61,0.51-1.24,0.91-1.88l3.48-7.11 C5.58,57.56,6,56.58,6.2,55.81c0.19-0.75,0.17-1.31,0.13-2.2l0-0.01c-0.03-0.82-0.08-1.88-0.02-3.47c0.03-0.95,0.1-1.88,0.21-2.78 c0.11-0.9,0.27-1.78,0.48-2.64c0.15-0.62,0.33-1.22,0.53-1.82c0.17-0.49,0.36-0.97,0.57-1.43L1.96,38.8 c-0.41-0.18-0.71-0.51-0.86-0.89c-0.15-0.39-0.16-0.83,0.02-1.24L1.2,36.5c0.03-0.05,0.06-0.1,0.09-0.15l0-0.01 c7.11-9.7,14.67-16.11,22.18-19.88c8.53-4.29,17.01-5.19,24.73-3.66c0.33,0.07,0.68,0.14,1.03,0.22c0.33,0.07,0.67,0.16,1.02,0.25 c0.14,0.04,0.23,0.16,0.24,0.3l0,2.72c0,0.17-0.14,0.31-0.31,0.31c-0.04,0-0.08-0.01-0.11-0.02c-0.39-0.11-0.8-0.21-1.23-0.32 c-0.42-0.1-0.84-0.19-1.26-0.27c-6.94-1.37-14.57-0.58-22.29,3.21c-6.77,3.32-13.63,8.95-20.16,17.44c1.92,0.84,4.22,1.7,6.05,2.65 c1.86,0.67,4.07,0.61,6.43,0.21c2.41-0.41,4.97-1.19,7.47-1.95c1.84-0.56,3.64-1.11,5.36-1.52c1.73-0.41,3.4-0.68,4.96-0.67 c0.1-0.01,0.21-0.01,0.32,0.01c0.1,0.01,0.21,0.04,0.31,0.07c0.43,0.14,0.76,0.44,0.94,0.81c0.19,0.37,0.23,0.81,0.09,1.24 c-0.82,2.49-1.19,4.64-1.17,6.53c0.01,1.87,0.4,3.47,1.09,4.87c0.7,1.41,1.71,2.65,2.96,3.76c1.26,1.12,2.77,2.11,4.45,3.02 c0.39,0.21,0.66,0.57,0.78,0.97c0.12,0.4,0.08,0.84-0.13,1.23c-0.21,0.39-0.57,0.66-0.97,0.78c-0.4,0.12-0.84,0.08-1.23-0.13 c-1.94-1.06-3.69-2.22-5.18-3.56c-1.5-1.34-2.72-2.87-3.59-4.64c-0.78-1.59-1.27-3.36-1.4-5.35c-0.12-1.86,0.08-3.91,0.64-6.2 c-1.03,0.15-2.12,0.4-3.25,0.7c-1.32,0.35-2.68,0.76-4.05,1.18c-2.58,0.78-5.21,1.59-7.77,2.04c-2.49,0.44-4.91,0.54-7.14-0.02 c-0.19,0.4-0.36,0.81-0.51,1.24c-0.18,0.51-0.33,1.04-0.46,1.57c-0.18,0.73-0.31,1.5-0.41,2.3c-0.1,0.8-0.16,1.62-0.19,2.46 c-0.05,1.46-0.01,2.46,0.02,3.23l0,0.03c0.05,1.2,0.08,1.96-0.17,2.96c-0.24,0.98-0.74,2.18-1.76,4.26L4.1,67.98L4.02,68.1 c-0.26,0.4-0.45,0.78-0.58,1.13c-0.13,0.37-0.2,0.71-0.2,1.01c0,0.15,0.01,0.3,0.04,0.44c0.03,0.13,0.07,0.26,0.12,0.36 c0.04,0.09,0.1,0.17,0.16,0.24l0.01,0.02c0.06,0.06,0.13,0.12,0.2,0.17c0.09,0.06,0.2,0.11,0.31,0.15 c0.12,0.03,0.25,0.06,0.38,0.06c1.28-0.01,2.8,0.16,4.11,0.24c0.06-0.02,0.12-0.03,0.18-0.04c0.08-0.01,0.16-0.02,0.25-0.02 c1.2,0,2.67,0.2,3.89,0.32c0.44,0.04,0.83,0.25,1.1,0.57c0.27,0.32,0.42,0.74,0.38,1.18c-0.04,0.45-0.25,0.84-0.57,1.11 s-0.74,0.42-1.18,0.38c-0.64-0.05-1.29-0.08-1.93-0.12l0,0.06c0.01,0.94,0.02,1.87,0.05,2.81c0.03,0.86,0.07,1.73,0.14,2.62 c0.43,0.2,0.85,0.36,1.27,0.48c0.47,0.14,0.92,0.23,1.36,0.28c0.51,0.05,1.01,0.04,1.51-0.04c0.49-0.08,0.98-0.22,1.46-0.44 c0.41-0.18,0.86-0.18,1.24-0.03c0.39,0.15,0.72,0.45,0.9,0.86l0,0.01c0.18,0.41,0.17,0.85,0.02,1.23c-0.15,0.39-0.45,0.72-0.86,0.9 l-0.01,0c-0.74,0.32-1.49,0.55-2.26,0.67c-0.77,0.12-1.55,0.14-2.33,0.06c-0.41-0.04-0.83-0.11-1.24-0.2 c-0.26-0.06-0.52-0.13-0.78-0.21l0.07,0.58c0.06,0.49,0.14,1.01,0.24,1.54c0.09,0.52,0.2,1.04,0.31,1.57l0,0.02 c0.04,0.2,0.04,0.4,0.01,0.59c-0.03,0.2-0.11,0.39-0.21,0.56c-0.38,0.77-0.67,1.49-0.88,2.14c-0.21,0.67-0.33,1.27-0.36,1.81 c-0.03,0.54,0.02,1.01,0.15,1.42c0.13,0.41,0.35,0.76,0.63,1.05c0.31,0.31,0.71,0.58,1.19,0.8c0.51,0.23,1.1,0.41,1.77,0.53 c1.03,0.19,2.21,0.26,3.48,0.22c1.34-0.04,2.78-0.21,4.29-0.48c1.48-0.27,3.06-0.62,4.65-1.05c1.44-0.4,2.88-0.86,4.27-1.4 c1.23-0.48,2.41-1.01,3.5-1.6c1.01-0.55,1.93-1.14,2.72-1.77c0.79-0.63,1.38-1.48,1.84-2.38l0.01-0.02 c0.47-0.92,0.81-1.9,1.13-2.81l0.32-0.91l0.19-0.52c0.4-1.11,0.96-2.63,1.64-4.05c0.69-1.45,1.52-2.8,2.47-3.53 c0.35-0.27,0.79-0.38,1.2-0.32c0.41,0.05,0.8,0.26,1.08,0.62c0.27,0.35,0.38,0.79,0.32,1.2c-0.05,0.41-0.26,0.81-0.62,1.08 c-0.56,0.43-1.14,1.47-1.67,2.63c-0.54,1.2-1.03,2.53-1.38,3.5c-0.18,0.45-0.34,0.93-0.5,1.38c-0.39,1.11-0.81,2.31-1.42,3.46 c-0.62,1.17-1.44,2.3-2.6,3.23c-0.93,0.74-1.99,1.43-3.13,2.05c-1.23,0.67-2.56,1.27-3.94,1.81c-0.3,0.12-0.62,0.23-0.94,0.35 L30.29,97.89L30.29,97.89z M81.11,51.99c0.17,6.5-1.39,13.09-5.11,19.17c-3.36,5.49-8.47,10.56-15.65,14.77 c-0.1,0.06-0.2,0.1-0.3,0.14L60,86.08c0.01,0.95,0.04,1.89,0.1,2.82c0.06,1,0.15,1.99,0.27,2.97c0.23,1.91,0.57,3.76,1.01,5.55 c0.44,1.79,0.98,3.52,1.61,5.2c0.16,0.42,0.13,0.86-0.04,1.24c-0.17,0.38-0.49,0.69-0.91,0.85c-0.42,0.16-0.86,0.13-1.24-0.04 c-0.38-0.17-0.69-0.49-0.85-0.91c-0.68-1.81-1.26-3.66-1.73-5.58c-0.47-1.92-0.84-3.89-1.08-5.92c-0.25-2.02-0.38-4.11-0.39-6.27 c-0.01-2.16,0.1-4.38,0.33-6.67c0.05-0.45,0.27-0.83,0.59-1.09c0.32-0.26,0.74-0.4,1.19-0.36l0.01,0c0.44,0.05,0.82,0.27,1.08,0.59 c0.26,0.32,0.4,0.74,0.36,1.19c-0.05,0.53-0.1,1.07-0.14,1.62l-0.07,1.01c6.07-3.81,10.42-8.31,13.29-13.13 c3.26-5.47,4.63-11.37,4.47-17.18c0-0.17,0.13-0.32,0.3-0.32l2.63,0c0.17,0,0.31,0.14,0.31,0.31L81.11,51.99L81.11,51.99z M52.4,62.42c0.08,0.44-0.03,0.87-0.26,1.21c-0.24,0.34-0.6,0.59-1.04,0.67c-0.44,0.08-0.87-0.03-1.21-0.26 c-0.34-0.24-0.59-0.6-0.67-1.04c-0.08-0.46-0.11-0.9-0.1-1.33c0.02-0.45,0.09-0.88,0.21-1.29c0.16-0.56,0.4-1.08,0.71-1.56 c0.32-0.49,0.71-0.93,1.16-1.31c0.42-0.36,0.9-0.67,1.41-0.91c0.51-0.24,1.05-0.41,1.61-0.52c0.48-0.09,0.97-0.12,1.46-0.1 c0.48,0.02,0.96,0.1,1.44,0.23c1.3,0.37,2.24,0.89,2.88,1.53c0.66,0.66,1.01,1.44,1.13,2.32c0.11,0.75,0.01,1.53-0.21,2.33 c-0.21,0.78-0.55,1.58-0.94,2.4c-0.34,0.71-1.15,2.41-2.21,4.36c-1.05,1.95-2.35,4.13-3.64,5.79c-1.86,2.4-3.72,4.02-5.23,3.77 c-1.53-0.25-2.64-2.37-2.92-7.45l0-0.01c-0.02-0.44,0.14-0.86,0.42-1.16l0.02-0.02c0.28-0.3,0.67-0.49,1.1-0.51l0.03,0 c0.43-0.01,0.84,0.15,1.14,0.42c0.31,0.28,0.51,0.67,0.53,1.12l0,0.02c0.11,1.96,0.42,2.81,0.83,2.96 c0.37,0.14,0.92-0.36,1.51-1.13c1.18-1.52,2.38-3.57,3.38-5.4c0.99-1.84,1.78-3.47,2.1-4.15c0.28-0.59,0.53-1.16,0.68-1.66 c0.15-0.48,0.22-0.9,0.18-1.24c-0.03-0.2-0.15-0.4-0.38-0.58c-0.27-0.21-0.69-0.41-1.3-0.58c-0.24-0.07-0.48-0.11-0.71-0.12 c-0.25-0.01-0.49,0.01-0.73,0.05c-0.28,0.05-0.56,0.14-0.81,0.26c-0.25,0.12-0.49,0.27-0.71,0.45c-0.2,0.17-0.38,0.37-0.52,0.59 c-0.14,0.21-0.24,0.43-0.31,0.68c-0.05,0.18-0.08,0.37-0.09,0.57C52.35,62.02,52.36,62.22,52.4,62.42L52.4,62.42z"/></g></svg>