<?xml version="1.0" encoding="utf-8"?><svg version="1.1" id="Layer_1" xmlns="http://www.w3.org/2000/svg" xmlns:xlink="http://www.w3.org/1999/xlink" x="0px" y="0px" viewBox="0 0 122.88 107.41" style="enable-background:new 0 0 122.88 107.41" xml:space="preserve"><style type="text/css">.st0{fill-rule:evenodd;clip-rule:evenodd;}</style><g fill="#fff"><path class="st0" d="M60.83,17.19C68.84,8.84,74.45,1.62,86.79,0.21c23.17-2.66,44.48,21.06,32.78,44.41 c-3.33,6.65-10.11,14.56-17.61,22.32c-8.23,8.52-17.34,16.87-23.72,23.2l-17.4,17.26L46.46,93.56C29.16,76.9,0.95,55.93,0.02,29.95 C-0.63,11.75,13.73,0.09,30.25,0.3C45.01,0.5,51.22,7.84,60.83,17.19L60.83,17.19L60.83,17.19z M39.31,51.36 c-1.11-1.07-1.69-2.49-1.72-3.93c-0.03-1.43,0.49-2.88,1.56-3.99c1.07-1.11,2.49-1.69,3.92-1.72c1.43-0.03,2.88,0.49,3.99,1.56 l8.52,8.16l20.26-18.82l0.69,0.52l-0.69-0.52c0.05-0.07,0.12-0.13,0.19-0.18c1.14-0.98,2.57-1.43,3.97-1.36v0l0.07,0.01 c1.41,0.09,2.78,0.72,3.8,1.85c1.03,1.15,1.5,2.61,1.42,4.04h0l-0.01,0.07c-0.09,1.38-0.7,2.73-1.79,3.74L59.39,63.25l0,0 c-0.04,0.05-0.09,0.1-0.14,0.14c-1.08,0.95-2.44,1.41-3.79,1.39c-1.36-0.02-2.72-0.54-3.78-1.56L39.31,51.36L39.31,51.36z"/></g></svg>